<svg xmlns="http://www.w3.org/2000/svg" viewBox="0 0 24 24" class="h-full fill-current"><g id="vuesax_outline_box" data-name="vuesax/outline/box" transform="translate(-108 -188)"><g id="box"><path id="Vector" d="M9.581,6.613a.746.746,0,0,1-.38-.1L.371,1.4A.761.761,0,0,1,.1.373.752.752,0,0,1,1.131.1l8.45,4.89,8.4-4.86a.761.761,0,0,1,1.03.27.761.761,0,0,1-.27,1.03l-8.77,5.08A.94.94,0,0,1,9.581,6.613Z" transform="translate(110.419 194.687)"></path> <path id="Vector-2" data-name="Vector" d="M.75,10.57A.755.755,0,0,1,0,9.82V.75A.755.755,0,0,1,.75,0,.755.755,0,0,1,1.5.75V9.82A.755.755,0,0,1,.75,10.57Z" transform="translate(119.25 199.79)"></path> <path id="Vector-3" data-name="Vector" d="M10.36,21.5a5.137,5.137,0,0,1-2.44-.57L2.58,17.96A5.443,5.443,0,0,1,0,13.57V7.92A5.457,5.457,0,0,1,2.58,3.53L7.92.57a5.507,5.507,0,0,1,4.88,0l5.34,2.97a5.443,5.443,0,0,1,2.58,4.39v5.65a5.457,5.457,0,0,1-2.58,4.39L12.8,20.93A5.137,5.137,0,0,1,10.36,21.5Zm0-20a3.686,3.686,0,0,0-1.71.38L3.31,4.85A4,4,0,0,0,1.5,7.92v5.65a4.036,4.036,0,0,0,1.81,3.08l5.34,2.97a4.014,4.014,0,0,0,3.42,0l5.34-2.97a4.02,4.02,0,0,0,1.81-3.08V7.92a4.036,4.036,0,0,0-1.81-3.08L12.07,1.87A3.813,3.813,0,0,0,10.36,1.5Z" transform="translate(109.64 189.25)"></path> <path id="Vector-4" data-name="Vector" d="M0,0H24V24H0Z" transform="translate(108 188)" fill="none" opacity="0"></path></g></g></svg>