<svg xmlns="http://www.w3.org/2000/svg" viewBox="0 0 24 24" class="fill-current h-full"><g id="vuesax_outline_message-question" data-name="vuesax/outline/message-question" transform="translate(-620 -252)"><g id="message-question"><path id="Vector" d="M6.75,20.63a1.764,1.764,0,0,1-.83-.21A1.741,1.741,0,0,1,5,18.88V17.46a5.392,5.392,0,0,1-5-5.71v-6A5.443,5.443,0,0,1,5.75,0h10A5.443,5.443,0,0,1,21.5,5.75v6a5.443,5.443,0,0,1-5.75,5.75H11.98L7.72,20.34A1.777,1.777,0,0,1,6.75,20.63Zm-1-19.14A3.984,3.984,0,0,0,1.5,5.74v6a3.984,3.984,0,0,0,4.25,4.25.755.755,0,0,1,.75.75v2.13a.252.252,0,0,0,.39.21l4.45-2.96a.771.771,0,0,1,.42-.13h4a3.984,3.984,0,0,0,4.25-4.25v-6a3.984,3.984,0,0,0-4.25-4.25Z" transform="translate(621.25 253.69)"></path> <path id="Vector-2" data-name="Vector" d="M2.41,6a.755.755,0,0,1-.75-.75V5.04A2.327,2.327,0,0,1,2.83,3.09c.37-.25.49-.42.49-.68a.91.91,0,1,0-1.82,0,.755.755,0,0,1-.75.75A.755.755,0,0,1,0,2.41a2.41,2.41,0,1,1,4.82,0A2.294,2.294,0,0,1,3.67,4.33c-.39.26-.51.43-.51.71v.21A.749.749,0,0,1,2.41,6Z" transform="translate(629.59 258.11)"></path> <path id="Vector-3" data-name="Vector" d="M.75,1.5A.75.75,0,1,1,1.5.75.749.749,0,0,1,.75,1.5Z" transform="translate(631.25 265.1)"></path> <path id="Vector-4" data-name="Vector" d="M0,0H24V24H0Z" transform="translate(620 252)" fill="none" opacity="0"></path></g></g></svg>