<svg xmlns="http://www.w3.org/2000/svg" viewBox="0 0 24 24" class="h-full fill-current"><g transform="translate(-492 -636)"><g id="ranking"><path d="M7.42,9.5H.75A.755.755,0,0,1,0,8.75v-6A2.748,2.748,0,0,1,2.75,0H7.42a.755.755,0,0,1,.75.75v8A.755.755,0,0,1,7.42,9.5ZM1.5,8H6.67V1.5H2.75A1.25,1.25,0,0,0,1.5,2.75Z" transform="translate(493.25 649.25)"></path> <path d="M7.42,13.5H.75A.755.755,0,0,1,0,12.75v-10A2.748,2.748,0,0,1,2.75,0H5.42A2.748,2.748,0,0,1,8.17,2.75v10A.749.749,0,0,1,7.42,13.5ZM1.51,12H6.68V2.75A1.25,1.25,0,0,0,5.43,1.5H2.76A1.25,1.25,0,0,0,1.51,2.75Z" transform="translate(499.91 645.25)"></path> <path d="M7.42,6.5H.75A.755.755,0,0,1,0,5.75v-5A.755.755,0,0,1,.75,0H5.42A2.748,2.748,0,0,1,8.17,2.75v3A.755.755,0,0,1,7.42,6.5ZM1.5,5H6.67V2.75A1.25,1.25,0,0,0,5.42,1.5H1.5Z" transform="translate(506.58 652.25)"></path> <path d="M5.457,7.422a1.749,1.749,0,0,1-.88-.27l-.82-.49-.81.48a1.348,1.348,0,0,1-1.56.06,1.345,1.345,0,0,1-.42-1.5l.19-.83-.68-.68a1.345,1.345,0,0,1-.42-1.38,1.361,1.361,0,0,1,1.14-.88l.87-.15L2.557.8a1.284,1.284,0,0,1,2.38,0l.49.98.87.15a1.347,1.347,0,0,1,1.14.88,1.365,1.365,0,0,1-.42,1.38l-.68.68.19.83a1.363,1.363,0,0,1-.42,1.51A1.017,1.017,0,0,1,5.457,7.422Zm-1.7-2.27a1.33,1.33,0,0,1,.68.18l.56.33-.12-.54a1.389,1.389,0,0,1,.36-1.24l.51-.51-.63-.11a1.4,1.4,0,0,1-.97-.72l-.39-.75-.38.75a1.4,1.4,0,0,1-.97.72l-.63.1.51.51a1.418,1.418,0,0,1,.36,1.24l-.12.54.56-.33A1.262,1.262,0,0,1,3.757,5.152Z" transform="translate(500.243 636.927)"></path> <path d="M0,0H24V24H0Z" transform="translate(492 636)" fill="none" opacity="0"></path></g></g></svg>