<svg xmlns="http://www.w3.org/2000/svg" viewBox="0 0 24 24" class="h-full fill-current"><g id="vuesax_outline_element-4" data-name="vuesax/outline/element-4" transform="translate(-684 -252)"><g id="element-4"><path id="Vector" d="M7.02,12.5H2.98C.97,12.5,0,11.57,0,9.65V2.85C0,.93.98,0,2.98,0H7.02C9.03,0,10,.93,10,2.85v6.8C10,11.57,9.02,12.5,7.02,12.5ZM2.98,1.5c-1.27,0-1.48.34-1.48,1.35v6.8c0,1.01.21,1.35,1.48,1.35H7.02c1.27,0,1.48-.34,1.48-1.35V2.85c0-1.01-.21-1.35-1.48-1.35Z" transform="translate(696.75 253.25)"></path> <path id="Vector-2" data-name="Vector" d="M7.02,7.5H2.98C.97,7.5,0,6.57,0,4.65V2.85C0,.93.98,0,2.98,0H7.02C9.03,0,10,.93,10,2.85v1.8C10,6.57,9.02,7.5,7.02,7.5Zm-4.04-6c-1.27,0-1.48.34-1.48,1.35v1.8C1.5,5.66,1.71,6,2.98,6H7.02C8.29,6,8.5,5.66,8.5,4.65V2.85c0-1.01-.21-1.35-1.48-1.35Z" transform="translate(696.75 267.25)"></path> <path id="Vector-3" data-name="Vector" d="M7.02,12.5H2.98C.97,12.5,0,11.57,0,9.65V2.85C0,.93.98,0,2.98,0H7.02C9.03,0,10,.93,10,2.85v6.8C10,11.57,9.02,12.5,7.02,12.5ZM2.98,1.5c-1.27,0-1.48.34-1.48,1.35v6.8c0,1.01.21,1.35,1.48,1.35H7.02c1.27,0,1.48-.34,1.48-1.35V2.85c0-1.01-.21-1.35-1.48-1.35Z" transform="translate(685.25 262.25)"></path> <path id="Vector-4" data-name="Vector" d="M7.02,7.5H2.98C.97,7.5,0,6.57,0,4.65V2.85C0,.93.98,0,2.98,0H7.02C9.03,0,10,.93,10,2.85v1.8C10,6.57,9.02,7.5,7.02,7.5Zm-4.04-6c-1.27,0-1.48.34-1.48,1.35v1.8C1.5,5.66,1.71,6,2.98,6H7.02C8.29,6,8.5,5.66,8.5,4.65V2.85c0-1.01-.21-1.35-1.48-1.35Z" transform="translate(685.25 253.25)"></path> <path id="Vector-5" data-name="Vector" d="M0,0H24V24H0Z" transform="translate(684 252)" fill="none" opacity="0"></path></g></g></svg>